<?xml version="1.0" standalone="no"?>
<!DOCTYPE svg PUBLIC "-//W3C//DTD SVG 20010904//EN"
 "http://www.w3.org/TR/2001/REC-SVG-20010904/DTD/svg10.dtd">
<svg version="1.0" xmlns="http://www.w3.org/2000/svg"
 width="266.000000pt" height="266.000000pt" viewBox="0 0 266.000000 266.000000"
 preserveAspectRatio="xMidYMid meet">
<metadata>
Created by potrace 1.11, written by Peter Selinger 2001-2013
</metadata>
<g transform="translate(0.000000,266.000000) scale(0.100000,-0.100000)"
fill="#000000" stroke="none">
<path d="M1293 2653 c20 -2 54 -2 75 0 20 2 3 4 -38 4 -41 0 -58 -2 -37 -4z"/>
<path d="M1158 2643 c6 -2 18 -2 25 0 6 3 1 5 -13 5 -14 0 -19 -2 -12 -5z"/>
<path d="M1478 2643 c6 -2 18 -2 25 0 6 3 1 5 -13 5 -14 0 -19 -2 -12 -5z"/>
<path d="M439 2313 l-24 -28 28 24 c25 23 32 31 24 31 -2 0 -14 -12 -28 -27z"/>
<path d="M2210 2315 c13 -14 26 -25 28 -25 3 0 -5 11 -18 25 -13 14 -26 25
-28 25 -3 0 5 -11 18 -25z"/>
<path d="M339 2213 l-24 -28 28 24 c25 23 32 31 24 31 -2 0 -14 -12 -28 -27z"/>
<path d="M2310 2215 c13 -14 26 -25 28 -25 3 0 -5 11 -18 25 -13 14 -26 25
-28 25 -3 0 5 -11 18 -25z"/>
<path d="M1746 2083 c-3 -10 -15 -60 -26 -111 -19 -79 -25 -92 -38 -86 -40 17
-111 26 -154 20 -129 -19 -238 -170 -238 -328 0 -110 47 -168 142 -175 44 -4
63 0 111 25 l59 30 -7 -25 c-5 -23 -4 -24 36 -21 l42 3 73 315 c40 173 76 327
79 343 6 26 5 27 -34 27 -29 0 -41 -5 -45 -17z m-104 -255 c46 -13 45 3 2
-184 l-25 -112 -58 -26 c-74 -33 -121 -34 -158 -2 -26 22 -28 30 -27 93 2 178
115 276 266 231z"/>
<path d="M1170 2056 c0 -7 -3 -28 -6 -45 l-6 -31 45 0 c41 0 45 3 51 28 4 15
9 35 12 45 5 15 -2 17 -45 17 -37 0 -51 -4 -51 -14z"/>
<path d="M488 1735 l-75 -325 43 0 c39 0 44 3 50 28 3 15 12 52 19 82 7 30 16
67 19 81 3 15 26 43 50 63 l45 36 101 -145 102 -145 49 0 c38 0 48 3 43 13 -4
6 -54 78 -111 160 -57 81 -105 153 -108 160 -2 6 73 77 166 157 94 80 173 148
175 153 3 4 -19 7 -48 7 l-53 -1 -187 -164 c-103 -91 -189 -165 -191 -165 -3
0 39 189 68 308 5 20 2 22 -38 22 l-43 0 -76 -325z"/>
<path d="M2010 1895 c-48 -15 -106 -64 -121 -103 -16 -42 -10 -89 14 -117 17
-20 47 -33 121 -53 109 -30 126 -44 111 -89 -24 -67 -155 -83 -250 -30 -51 29
-56 26 -59 -35 -1 -30 2 -33 54 -49 152 -49 309 7 340 121 8 31 8 47 -2 67
-17 35 -67 69 -115 77 -118 22 -153 48 -133 100 22 59 148 73 237 27 l41 -21
7 41 c8 48 3 53 -68 69 -64 13 -122 12 -177 -5z"/>
<path d="M1140 1894 c0 -7 -99 -439 -106 -466 -5 -15 1 -18 35 -18 29 0 41 5
45 18 9 28 106 453 106 463 0 5 -18 9 -40 9 -22 0 -40 -3 -40 -6z"/>
<path d="M12 1490 c0 -14 2 -19 5 -12 2 6 2 18 0 25 -3 6 -5 1 -5 -13z"/>
<path d="M2642 1490 c0 -14 2 -19 5 -12 2 6 2 18 0 25 -3 6 -5 1 -5 -13z"/>
<path d="M3 1330 c0 -41 2 -58 4 -37 2 20 2 54 0 75 -2 20 -4 3 -4 -38z"/>
<path d="M2653 1330 c0 -41 2 -58 4 -37 2 20 2 54 0 75 -2 20 -4 3 -4 -38z"/>
<path d="M12 1170 c0 -14 2 -19 5 -12 2 6 2 18 0 25 -3 6 -5 1 -5 -13z"/>
<path d="M673 1179 c-61 -15 -161 -86 -199 -142 -58 -85 -78 -150 -78 -263 -1
-95 1 -103 29 -149 39 -63 99 -95 190 -102 l65 -6 0 -34 c0 -85 61 -129 168
-120 35 3 67 9 72 13 4 5 10 24 14 43 5 29 4 32 -12 26 -64 -26 -145 -12 -156
28 -14 52 -7 66 42 91 99 50 181 175 202 310 30 190 -53 305 -225 312 -38 2
-89 -2 -112 -7z m167 -81 c60 -30 84 -80 83 -168 -1 -176 -100 -318 -235 -336
-141 -19 -219 64 -205 220 21 222 199 364 357 284z"/>
<path d="M1773 1148 l-9 -43 44 -3 c24 -2 46 -2 48 0 2 2 6 23 10 46 l7 42
-46 0 -46 0 -8 -42z"/>
<path d="M2642 1170 c0 -14 2 -19 5 -12 2 6 2 18 0 25 -3 6 -5 1 -5 -13z"/>
<path d="M1135 853 c-21 -93 -38 -187 -38 -211 0 -47 24 -88 64 -110 36 -19
126 -9 187 22 l53 27 -7 -26 c-6 -24 -4 -25 34 -25 30 0 42 5 46 18 9 28 106
453 106 463 0 5 -18 9 -39 9 l-39 0 -17 -72 c-65 -288 -65 -286 -98 -307 -86
-52 -176 -52 -197 -1 -11 26 -8 52 24 194 20 90 36 168 36 175 0 6 -16 11 -38
11 l-38 0 -39 -167z"/>
<path d="M1746 1003 c-9 -29 -106 -454 -106 -464 0 -5 18 -9 40 -9 22 0 40 2
40 4 0 4 66 294 105 464 5 20 2 22 -34 22 -29 0 -41 -5 -45 -17z"/>
<path d="M1950 1001 c0 -11 -3 -26 -6 -35 -5 -14 10 -16 132 -16 l139 -1 -182
-177 c-143 -140 -182 -184 -187 -209 l-5 -33 198 0 c198 0 199 0 205 23 13 48
14 47 -141 47 l-148 1 187 182 c125 122 188 191 192 210 l6 27 -195 0 c-186 0
-195 -1 -195 -19z"/>
<path d="M340 445 c13 -14 26 -25 28 -25 3 0 -5 11 -18 25 -13 14 -26 25 -28
25 -3 0 5 -11 18 -25z"/>
<path d="M2309 443 l-24 -28 28 24 c15 14 27 26 27 28 0 8 -8 1 -31 -24z"/>
<path d="M440 345 c13 -14 26 -25 28 -25 3 0 -5 11 -18 25 -13 14 -26 25 -28
25 -3 0 5 -11 18 -25z"/>
<path d="M2209 343 l-24 -28 28 24 c25 23 32 31 24 31 -2 0 -14 -12 -28 -27z"/>
<path d="M1158 13 c6 -2 18 -2 25 0 6 3 1 5 -13 5 -14 0 -19 -2 -12 -5z"/>
<path d="M1478 13 c6 -2 18 -2 25 0 6 3 1 5 -13 5 -14 0 -19 -2 -12 -5z"/>
<path d="M1293 3 c20 -2 54 -2 75 0 20 2 3 4 -38 4 -41 0 -58 -2 -37 -4z"/>
</g>
</svg>
